<mxfile host="app.diagrams.net" modified="2024-11-19T06:29:17.982Z" agent="Mozilla/5.0 (Macintosh; Intel Mac OS X 10_15_7) AppleWebKit/537.36 (KHTML, like Gecko) Chrome/131.0.0.0 Safari/537.36" version="21.1.8" etag="LOQg-9_pUNzhA4p_gRI9" type="github">
  <diagram name="第 1 页" id="gTQ03NnzsZQoYuvRtBxk">
    <mxGraphModel>
      <root>
        <mxCell id="0" />
        <mxCell id="1" parent="0" />
      </root>
    </mxGraphModel>
  </diagram>
</mxfile>
